<?xml version="1.0" encoding="UTF-8"?>
<svg width="165px" height="50px" viewBox="0 0 165 50" version="1.1" xmlns="http://www.w3.org/2000/svg" xmlns:xlink="http://www.w3.org/1999/xlink">
    <!-- Generator: Sketch 52.6 (67491) - http://www.bohemiancoding.com/sketch -->
    <title>CreamLogo</title>
    <desc>Created with Sketch.</desc>
    <g id="CreamLogo" stroke="none" stroke-width="1" fill="none" fill-rule="evenodd">
        <g id="CreamIcon" transform="translate(3.000000, 3.000000)">
            <g id="Group" transform="translate(0.000000, 13.000000)">
                <path d="M22.5,30.5 C10.35,30.5 0.5,23.784 0.5,15.5 C0.5,7.216 10.35,0.5 22.5,0.5 C34.65,0.5 44.5,7.216 44.5,15.5 C44.5,23.784 34.65,30.5 22.5,30.5 Z" id="Path" fill="#FFFFFF"></path>
                <path d="M22.5,30.5 C10.35,30.5 0.5,23.784 0.5,15.5 C0.5,7.216 10.35,0.5 22.5,0.5 C34.65,0.5 44.5,7.216 44.5,15.5 C44.5,23.784 34.65,30.5 22.5,30.5 Z" id="Path" stroke="#FFFFFF" stroke-width="2" fill-opacity="0" fill="#000000" stroke-linecap="round" stroke-linejoin="round"></path>
            </g>
            <g id="Group" transform="translate(17.000000, 0.000000)">
                <path d="M0.5,0.927 C0.5,0.927 5.5,1.01 5.5,7.5 C5.5,13.99 0.5,13.906 0.5,13.906 C0.5,13.906 12.5,14.717 12.5,7.417 C12.5,0.116 0.5,0.927 0.5,0.927 Z" id="Path" fill="#FFFFFF"></path>
                <path d="M0.5,0.927 C0.5,0.927 5.5,1.01 5.5,7.5 C5.5,13.99 0.5,13.906 0.5,13.906 C0.5,13.906 12.5,14.717 12.5,7.417 C12.5,0.116 0.5,0.927 0.5,0.927 Z" id="Path" stroke="#FFFFFF" stroke-width="2" fill-opacity="0" fill="#000000" stroke-linecap="round" stroke-linejoin="round"></path>
            </g>
        </g>
        <text id="CREAM" font-family="HannotateSC-W7, Hannotate SC" font-size="32" font-weight="bold" fill="#FFFFFF">
            <tspan x="55" y="37">CREAM</tspan>
        </text>
    </g>
</svg>